<?xml version="1.0" encoding="utf-8"?>
<!-- Svg Vector Icons : http://www.onlinewebfonts.com/icon -->
<!DOCTYPE svg PUBLIC "-//W3C//DTD SVG 1.1//EN" "http://www.w3.org/Graphics/SVG/1.1/DTD/svg11.dtd">
<svg version="1.1" xmlns="http://www.w3.org/2000/svg" xmlns:xlink="http://www.w3.org/1999/xlink" x="0px" y="0px" viewBox="0 0 1000 1000" enable-background="new 0 0 1000 1000" xml:space="preserve">
<metadata> Svg Vector Icons : http://www.onlinewebfonts.com/icon </metadata>
<g><g transform="translate(0.000000,512.000000) scale(0.100000,-0.100000)"><path d="M4530.1,5007.9C3375.4,4889,2341.7,4400,1530.4,3588.6C751.6,2809.9,287.5,1860.5,124.4,723.1c-32.6-226.3-32.6-982,0-1208.3c163-1137.4,629.1-2086.8,1405.9-2865.5c776.8-776.8,1730-1244.8,2865.5-1405.9c226.3-32.6,982-32.6,1208.3,0c939.8,134.3,1779.9,491,2474.2,1053c987.8,797.9,1611.1,1916.1,1797.2,3218.4c32.6,226.3,32.6,982,0,1208.3c-161.1,1135.5-629.1,2088.7-1405.9,2865.5c-759.5,759.5-1687.8,1223.7-2779.2,1392.5C5448.8,5017.5,4775.6,5034.8,4530.1,5007.9z M5667.5,3166.7c667.5-72.9,1223.7-314.6,1647.6-715.4c370.2-347.2,600.3-763.4,726.9-1306.2c51.8-216.7,53.7-257,55.6-671.3c0-360.6-5.8-469.9-36.4-604.2c-188-855.4-679-1361.8-1325.3-1361.8c-266.6,0-458.4,71-638.7,235.9c-46,44.1-105.5,115.1-132.3,161.1c-26.8,46-57.5,82.5-71,82.5c-13.4,0-57.5-34.5-97.8-78.7c-103.6-105.5-289.6-237.8-414.3-293.5c-191.8-84.4-379.8-113.1-648.3-101.6c-418.1,19.2-661.7,117-914.9,368.3C3504-805.5,3392.7-473.7,3413.8,94.1c7.7,230.2,19.2,316.5,61.4,456.5c136.2,460.3,420,797.9,843.9,1008.9c322.2,159.2,423.9,178.4,939.8,178.4c379.8,1.9,475.7-5.7,690.5-44.1c280-49.9,581.1-122.7,604.2-147.7c7.7-9.6-5.8-445-30.7-966.7c-47.9-982-46-1095.2,23-1237.1c47.9-103.6,111.3-143.8,226.3-143.8c280,0,464.1,366.3,510.2,1014.6c76.7,1076-402.8,1881.6-1285.1,2159.7c-585,182.2-1428.9,122.7-1964-141.9c-544.7-268.5-993.5-780.6-1208.3-1379c-120.8-337.6-174.6-865-128.5-1264c84.4-721.2,437.3-1277.4,989.7-1553.6c615.7-310.7,1480.7-347.1,2497.2-107.4c188,44.1,224.4,47.9,291.5,26.8c147.7-44.1,270.4-197.6,270.4-337.6c0-82.5-61.4-205.2-132.4-264.7c-101.7-84.4-544.7-205.2-980.1-266.6c-278.1-38.4-1030-32.6-1304.2,11.5c-448.8,69-725,151.5-1064.5,316.5C2560.3-2244,2128.7-1664.8,1950.4-830.4c-53.7,251.3-74.8,876.5-38.4,1175.7c86.3,726.9,383.6,1377.1,843.9,1843.2c602.3,611.8,1231.4,897.6,2167.3,985.8C5082.5,3189.7,5496.8,3185.9,5667.5,3166.7z"/><path d="M5038.3,1056.9c-161.1-26.8-360.6-130.4-475.7-247.4c-184.1-186-291.5-491-291.5-820.9c0-527.4,212.9-790.2,640.6-790.2c201.4,0,310.7,36.4,433.5,147.7c216.7,195.6,278.1,437.3,328,1296.6c11.5,209.1,17.2,383.6,13.4,389.4c-17.2,15.3-293.4,44.1-418.1,44.1C5199.5,1074.1,5095.9,1066.5,5038.3,1056.9z"/></g></g>
</svg>